<svg xmlns="http://www.w3.org/2000/svg" width="91.593" height="92.953" viewBox="0 0 91.593 92.953"><defs><style>.a{fill:#0288ff;}</style></defs><g transform="translate(-282.796)"><rect class="a" width="2.55" height="17.073" transform="translate(282.796 75.651)"/><path class="a" d="M302.168,188.19c-3.557,0-5.682,2.3-5.682,5.729v1.318c0,3.647,2.231,5.9,5.793,5.925,3.183,0,4.964-1.7,5.389-3.74h-2.495a2.763,2.763,0,0,1-2.852,1.806c-2.027,0-3.273-1.5-3.273-3.719v-.264h8.776v-1.186C307.825,190.545,305.726,188.19,302.168,188.19Zm3.12,5.274h-6.239v-.034a3.126,3.126,0,1,1,6.239,0Z" transform="translate(-7.872 -108.208)"/><path class="a" d="M332.668,193.407v-6.94H335.3v-1.951h-2.61V181.43h-2.55v3.107h-1.857v1.951h1.832v7.055c0,2.495.8,3.613,4.038,3.613a9.454,9.454,0,0,0,1.25-.081v-1.866h-.612C333.216,195.209,332.668,194.83,332.668,193.407Z" transform="translate(-26.156 -104.321)"/><path class="a" d="M351.8,185.321h1.98L355.723,180h-2.584Z" transform="translate(-39.675 -103.499)"/><path class="a" d="M368.476,193.668c-1.53-.263-3.366-.523-3.366-1.879,0-1.126,1.058-1.76,2.55-1.76,1.934,0,2.55,1.054,2.622,1.938h2.342c0-2.163-1.717-3.778-4.888-3.778-2.665,0-5.109,1.152-5.109,3.838,0,2.282,2.023,3.043,4.5,3.519,1.819.331,3.362.582,3.362,1.921,0,.969-.867,1.819-2.763,1.819-1.67,0-2.665-.714-2.831-1.781h-2.508c0,2.244,2.036,3.634,5.16,3.634,3.3,0,5.449-1.449,5.449-3.97C372.994,194.773,370.984,194.093,368.476,193.668Z" transform="translate(-45.764 -108.208)"/><rect class="a" width="2.55" height="17.073" transform="translate(335.472 75.651)"/><path class="a" d="M422.635,181.008a1.424,1.424,0,1,0,.289-2.833l-.038,0a1.475,1.475,0,0,0-1.53,1.417A1.424,1.424,0,0,0,422.635,181.008Z" transform="translate(-79.671 -102.448)"/><rect class="a" width="2.576" height="12.525" transform="translate(341.978 80.195)"/><path class="a" d="M443.675,188.19a4.333,4.333,0,0,0-3.91,1.913h-.089v-1.7h-2.55l.038,12.525h2.55V193.4a2.86,2.86,0,0,1,3.094-3.077,2.782,2.782,0,0,1,3.069,3.018v7.574h2.55v-8.045C448.427,189.818,446.425,188.19,443.675,188.19Z" transform="translate(-88.739 -108.208)"/><path class="a" d="M477.7,187.979l5.172-5.432h-3.094l-5.032,5.406h-.115V178h-2.55v17.068h2.55l0-4.446,1.148-1.186,4.335,5.636h3.107Z" transform="translate(-108.841 -102.349)"/><path class="a" d="M370.745,64.1h.489a6.617,6.617,0,0,0,6.608-6.592V49.64a12.393,12.393,0,0,0-4.3-9.379l-6.255-5.407c1.775-1.881,5.179-6.132,5.179-11.079,0-4.591-3.168-8.326-7.063-8.326s-7.064,3.735-7.064,8.326c0,4.958,3.4,9.2,5.178,11.08l-3.272,2.828q-.39-.368-.8-.725l-9.168-8.577c2.254-2.181,8.37-8.823,8.37-16.685,0-6.449-4.486-11.7-10-11.7s-10.022,5.247-10.022,11.7c0,7.62,5.744,14.095,8.149,16.472l-9.418,8.789q-.41.356-.8.723l-3.268-2.819c1.775-1.875,5.183-6.123,5.183-11.086,0-4.591-3.169-8.326-7.064-8.326s-7.064,3.735-7.064,8.326c0,4.952,3.411,9.207,5.185,11.085l-6.26,5.4a12.4,12.4,0,0,0-4.3,9.381v7.867a6.615,6.615,0,0,0,6.6,6.588h.5a6.619,6.619,0,0,0,6.608-6.592V50.895a15.43,15.43,0,0,1,4.044-9.7l1.154,1a9.843,9.843,0,0,1,3.417,7.462v7.86a6.615,6.615,0,0,0,6.6,6.582H348.9a6.609,6.609,0,0,0,6.608-6.592v-7.85a9.844,9.844,0,0,1,3.418-7.463l1.144-.989a15.427,15.427,0,0,1,4.04,9.694v6.618a6.609,6.609,0,0,0,6.6,6.583ZM331.406,18c2.489,0,4.514,2.591,4.514,5.776,0,4.067-3.007,7.761-4.514,9.357-1.508-1.6-4.513-5.285-4.513-9.357C326.892,20.59,328.918,18,331.406,18Zm-1.275,32.9V57.5a4.064,4.064,0,0,1-4.063,4.043h-.494a4.059,4.059,0,0,1-4.058-4.042V49.642a9.844,9.844,0,0,1,3.417-7.451l6.464-5.577.007.006.009-.008,3.375,2.912A17.737,17.737,0,0,0,330.131,50.895Zm11.042-39.2c0-5.043,3.352-9.146,7.472-9.146s7.45,4.1,7.45,9.146c0,6.667-5.362,12.635-7.464,14.718C346.528,24.335,341.173,18.38,341.173,11.7ZM357.263,40.26a12.393,12.393,0,0,0-4.3,9.394V57.5a4.059,4.059,0,0,1-4.063,4.042H347.9a4.063,4.063,0,0,1-4.058-4.042V49.654a12.393,12.393,0,0,0-4.3-9.394l-1.048-.9q.267-.247.544-.486l9.369-8.742,9.309,8.709.037.033q.28.242.549.49ZM365.4,18c2.488,0,4.513,2.591,4.513,5.776,0,4.056-3.008,7.757-4.516,9.357-1.509-1.593-4.511-5.275-4.511-9.357C360.889,20.59,362.914,18,365.4,18Zm1.262,39.5V50.895a17.736,17.736,0,0,0-4.655-11.366l3.379-2.921.015.013.014-.012,6.458,5.582a9.843,9.843,0,0,1,3.417,7.45V57.5a4.064,4.064,0,0,1-4.063,4.046h-.508a4.059,4.059,0,0,1-4.057-4.042Z" transform="translate(-20.797)"/></g></svg>