<svg xmlns="http://www.w3.org/2000/svg" xmlns:xlink="http://www.w3.org/1999/xlink" width="59.136" height="46.94" viewBox="0 0 59.136 46.94"><defs><style>.a{fill:url(#a);}.b{fill:url(#b);}.c{fill:url(#c);}.d{fill:#303a52;}</style><linearGradient id="a" x1="0.5" y1="0.284" x2="0.5" y2="1.953" gradientUnits="objectBoundingBox"><stop offset="0" stop-color="#0288ff"/><stop offset="1" stop-color="#00abff"/></linearGradient><linearGradient id="b" x1="0.5" y1="1.263" x2="0.5" y2="3.325" xlink:href="#a"/><linearGradient id="c" x1="0.5" y1="1.051" x2="0.5" y2="3.958" xlink:href="#a"/></defs><g transform="translate(-339.246 -803)"><g transform="translate(143.021 829.145)"><g transform="translate(210.979 -26.145)"><g transform="translate(0 0)"><g transform="translate(0 13.171)"><path class="a" d="M252.563,58.656a3.2,3.2,0,0,1-3.193-3.183v-3.8a4.761,4.761,0,0,0-1.653-3.609l-.558-.481a7.462,7.462,0,0,0-1.956,4.691v3.2a3.2,3.2,0,0,1-3.2,3.188h-.244a3.2,3.2,0,0,1-3.194-3.186v-3.8a5.994,5.994,0,0,1,2.08-4.537l3.936-3.4,2.49,2.148q.188-.178.387-.349l5.04-4.7.842.9-5.066,4.727q-.134.116-.263.235l.507.437a5.993,5.993,0,0,1,2.08,4.543v3.8a1.963,1.963,0,0,0,1.963,1.955h.241v1.233h-.244ZM242,57.422H242a1.963,1.963,0,0,0,1.965-1.955v-3.2a8.58,8.58,0,0,1,2.253-5.5l-1.636-1.412-3.131,2.7a4.761,4.761,0,0,0-1.652,3.6v3.8a1.963,1.963,0,0,0,1.963,1.955H242Z" transform="translate(-238.57 -40.827)"/></g><g transform="translate(9.507)"><path class="b" d="M289.661-8.814l-.4-.346c-.181-.156-4.439-3.871-4.439-8.433,0-3.119,2.174-5.657,4.847-5.657s4.837,2.538,4.837,5.657c0,4.562-4.259,8.277-4.441,8.433Zm.006-13.2c-1.993,0-3.614,1.984-3.614,4.424,0,3.224,2.591,6.11,3.608,7.118,1.017-1.008,3.609-3.894,3.609-7.118C293.27-20.032,291.654-22.017,289.667-22.017Z" transform="translate(-284.82 23.25)"/></g><g transform="translate(2.6 7.472)"><path class="c" d="M254.636,23.341l-.407-.359c-.123-.108-3.009-2.687-3.009-5.854,0-2.22,1.532-4.027,3.416-4.027s3.416,1.806,3.416,4.027c0,3.176-2.887,5.747-3.01,5.855Zm0-9.006c-1.2,0-2.183,1.253-2.183,2.793a7.281,7.281,0,0,0,2.183,4.526,7.289,7.289,0,0,0,2.183-4.526C256.819,15.587,255.84,14.334,254.636,14.334Z" transform="translate(-251.22 -13.101)"/></g><g transform="translate(13.707 13.172)"><path class="a" d="M316.574,58.658a3.2,3.2,0,0,1-3.193-3.183v-3.2a7.462,7.462,0,0,0-1.954-4.688l-.554.478a4.761,4.761,0,0,0-1.653,3.61v3.8a3.2,3.2,0,0,1-3.2,3.188h-.243V57.425h.241a1.966,1.966,0,0,0,1.965-1.955v-3.8a5.992,5.992,0,0,1,2.08-4.543l.5-.435q-.13-.12-.266-.237l-.018-.016-5.036-4.711.842-.9,5.028,4.7q.2.172.388.351L314,43.727l3.937,3.4a5.993,5.993,0,0,1,2.08,4.536v3.8a3.2,3.2,0,0,1-3.206,3.188h-.24Zm-4.211-11.882a8.579,8.579,0,0,1,2.251,5.5v3.2a1.963,1.963,0,0,0,1.962,1.955h.239a1.963,1.963,0,0,0,1.971-1.957v-3.8a4.761,4.761,0,0,0-1.653-3.6L314,45.358Z" transform="translate(-305.251 -40.83)"/></g><g transform="translate(19.043 7.472)"><path class="c" d="M334.627,23.341l-.408-.358c-.123-.108-3.009-2.679-3.009-5.855,0-2.22,1.533-4.027,3.416-4.027s3.416,1.806,3.416,4.027c0,3.167-2.886,5.746-3.009,5.854Zm0-9.006c-1.2,0-2.183,1.253-2.183,2.793a7.262,7.262,0,0,0,2.182,4.526,7.309,7.309,0,0,0,2.184-4.526C336.809,15.587,335.83,14.334,334.626,14.334Z" transform="translate(-331.21 -13.101)"/></g></g></g></g><path class="d" d="M1.246,0V-9.94h.98V-.868h5.74V0ZM12.068.14a3.507,3.507,0,0,1-1.463-.3A3.585,3.585,0,0,1,9.45-.987,3.835,3.835,0,0,1,8.687-2.2a3.939,3.939,0,0,1-.273-1.47,3.848,3.848,0,0,1,.273-1.449,3.75,3.75,0,0,1,.756-1.19A3.588,3.588,0,0,1,10.6-7.119a3.521,3.521,0,0,1,1.456-.3,3.507,3.507,0,0,1,1.463.3,3.478,3.478,0,0,1,1.141.819A3.819,3.819,0,0,1,15.4-5.11a3.844,3.844,0,0,1,.266,1.428v.224a.563.563,0,0,1-.014.154H9.408a3.07,3.07,0,0,0,.273,1.085,2.982,2.982,0,0,0,.6.861,2.666,2.666,0,0,0,.833.567,2.493,2.493,0,0,0,1,.2,2.586,2.586,0,0,0,.7-.1,2.83,2.83,0,0,0,.644-.266,2.4,2.4,0,0,0,.532-.413A1.774,1.774,0,0,0,14.35-1.9l.826.224a2.426,2.426,0,0,1-.476.735,3.323,3.323,0,0,1-.714.574,3.5,3.5,0,0,1-.9.378A3.884,3.884,0,0,1,12.068.14Zm2.688-4.172A2.946,2.946,0,0,0,14.483-5.1a2.915,2.915,0,0,0-.588-.833,2.6,2.6,0,0,0-.826-.546,2.57,2.57,0,0,0-1-.2,2.621,2.621,0,0,0-1.008.2,2.58,2.58,0,0,0-.833.546,2.683,2.683,0,0,0-.574.84,3.18,3.18,0,0,0-.259,1.064ZM20.58-.35q-.084.042-.245.112t-.371.14a4.343,4.343,0,0,1-.476.126,2.713,2.713,0,0,1-.56.056A2.035,2.035,0,0,1,18.34,0a1.371,1.371,0,0,1-.49-.259A1.275,1.275,0,0,1,17.514-.7a1.424,1.424,0,0,1-.126-.616V-6.538H16.38v-.756h1.008V-9.758h.952v2.464h1.68v.756H18.34v4.956a.756.756,0,0,0,.287.6.983.983,0,0,0,.595.189,1.788,1.788,0,0,0,.714-.133,3.147,3.147,0,0,0,.392-.189Zm1.106-6.944v-2.73h.826v2.73ZM26.8.14A5.076,5.076,0,0,1,25.13-.14a4,4,0,0,1-1.4-.812l.434-.644a4.746,4.746,0,0,0,1.253.756,3.677,3.677,0,0,0,1.365.252,2.464,2.464,0,0,0,1.407-.357,1.155,1.155,0,0,0,.525-1.015.88.88,0,0,0-.14-.511,1.212,1.212,0,0,0-.413-.357,3.224,3.224,0,0,0-.686-.273q-.413-.119-.959-.245-.63-.154-1.092-.308A3.34,3.34,0,0,1,24.661-4a1.262,1.262,0,0,1-.448-.483,1.574,1.574,0,0,1-.147-.721,2.075,2.075,0,0,1,.217-.966,1.97,1.97,0,0,1,.588-.693,2.671,2.671,0,0,1,.868-.413A3.882,3.882,0,0,1,26.8-7.42a4.094,4.094,0,0,1,1.526.273,3.016,3.016,0,0,1,1.106.721l-.462.56a2.561,2.561,0,0,0-.987-.63,3.535,3.535,0,0,0-1.211-.21,3.007,3.007,0,0,0-.7.077,1.685,1.685,0,0,0-.567.245,1.207,1.207,0,0,0-.385.427,1.262,1.262,0,0,0-.14.609,1,1,0,0,0,.1.476.836.836,0,0,0,.322.315,2.623,2.623,0,0,0,.567.238q.343.105.833.217.7.168,1.232.336a3.87,3.87,0,0,1,.889.392,1.544,1.544,0,0,1,.539.546,1.571,1.571,0,0,1,.182.784,1.9,1.9,0,0,1-.77,1.6A3.331,3.331,0,0,1,26.8.14ZM34.958,0V-9.94h.98V-.868h5.74V0Zm7.966,0V-7.294h.952V0Zm0-8.82v-1.4h.952v1.4ZM52.108,0h-.952V-4.074a3.554,3.554,0,0,0-.385-1.89,1.315,1.315,0,0,0-1.183-.588,2.426,2.426,0,0,0-.84.154,2.832,2.832,0,0,0-.777.434,3.322,3.322,0,0,0-.637.665,2.607,2.607,0,0,0-.406.833V0h-.952V-7.294h.868v1.652A3.427,3.427,0,0,1,48.125-6.93a3.512,3.512,0,0,1,1.813-.49A2.148,2.148,0,0,1,50.96-7.2a1.744,1.744,0,0,1,.672.63A2.9,2.9,0,0,1,52-5.572a6.979,6.979,0,0,1,.112,1.3Zm7.238,0L56.658-3.738,55.09-2.282V0h-.952V-10.22h.952v6.944l4.1-4H60.27L57.288-4.3,60.382,0Z" transform="translate(338 849.8)"/></g></svg>