<svg xmlns="http://www.w3.org/2000/svg" xmlns:xlink="http://www.w3.org/1999/xlink" width="28.476" height="31" viewBox="0 0 28.476 31"><defs><style>.a{fill:#FFFFFF;}.b{fill:#FFFFFF;}.c{fill:#FFFFFF;}</style><linearGradient id="a" x1="0.5" y1="0.284" x2="0.5" y2="1.953" gradientUnits="objectBoundingBox"><stop offset="0" stop-color="#FFFFFF"/><stop offset="1" stop-color="#FFFFFF"/></linearGradient><linearGradient id="b" x1="0.5" y1="1.263" x2="0.5" y2="3.325" xlink:href="#a"/><linearGradient id="c" x1="0.5" y1="1.051" x2="0.5" y2="3.958" xlink:href="#a"/></defs><g transform="translate(-210.979 26.145)"><g transform="translate(210.979 -26.145)"><g transform="translate(0 0)"><g transform="translate(0 13.171)"><path class="a" d="M252.563,58.656a3.2,3.2,0,0,1-3.193-3.183v-3.8a4.761,4.761,0,0,0-1.653-3.609l-.558-.481a7.462,7.462,0,0,0-1.956,4.691v3.2a3.2,3.2,0,0,1-3.2,3.188h-.244a3.2,3.2,0,0,1-3.194-3.186v-3.8a5.994,5.994,0,0,1,2.08-4.537l3.936-3.4,2.49,2.148q.188-.178.387-.349l5.04-4.7.842.9-5.066,4.727q-.134.116-.263.235l.507.437a5.993,5.993,0,0,1,2.08,4.543v3.8a1.963,1.963,0,0,0,1.963,1.955h.241v1.233h-.244ZM242,57.422H242a1.963,1.963,0,0,0,1.965-1.955v-3.2a8.58,8.58,0,0,1,2.253-5.5l-1.636-1.412-3.131,2.7a4.761,4.761,0,0,0-1.652,3.6v3.8a1.963,1.963,0,0,0,1.963,1.955H242Z" transform="translate(-238.57 -40.827)"/></g><g transform="translate(9.507)"><path class="b" d="M289.661-8.814l-.4-.346c-.181-.156-4.439-3.871-4.439-8.433,0-3.119,2.174-5.657,4.847-5.657s4.837,2.538,4.837,5.657c0,4.562-4.259,8.277-4.441,8.433Zm.006-13.2c-1.993,0-3.614,1.984-3.614,4.424,0,3.224,2.591,6.11,3.608,7.118,1.017-1.008,3.609-3.894,3.609-7.118C293.27-20.032,291.654-22.017,289.667-22.017Z" transform="translate(-284.82 23.25)"/></g><g transform="translate(2.6 7.472)"><path class="c" d="M254.636,23.341l-.407-.359c-.123-.108-3.009-2.687-3.009-5.854,0-2.22,1.532-4.027,3.416-4.027s3.416,1.806,3.416,4.027c0,3.176-2.887,5.747-3.01,5.855Zm0-9.006c-1.2,0-2.183,1.253-2.183,2.793a7.281,7.281,0,0,0,2.183,4.526,7.289,7.289,0,0,0,2.183-4.526C256.819,15.587,255.84,14.334,254.636,14.334Z" transform="translate(-251.22 -13.101)"/></g><g transform="translate(13.707 13.172)"><path class="a" d="M316.574,58.658a3.2,3.2,0,0,1-3.193-3.183v-3.2a7.462,7.462,0,0,0-1.954-4.688l-.554.478a4.761,4.761,0,0,0-1.653,3.61v3.8a3.2,3.2,0,0,1-3.2,3.188h-.243V57.425h.241a1.966,1.966,0,0,0,1.965-1.955v-3.8a5.992,5.992,0,0,1,2.08-4.543l.5-.435q-.13-.12-.266-.237l-.018-.016-5.036-4.711.842-.9,5.028,4.7q.2.172.388.351L314,43.727l3.937,3.4a5.993,5.993,0,0,1,2.08,4.536v3.8a3.2,3.2,0,0,1-3.206,3.188h-.24Zm-4.211-11.882a8.579,8.579,0,0,1,2.251,5.5v3.2a1.963,1.963,0,0,0,1.962,1.955h.239a1.963,1.963,0,0,0,1.971-1.957v-3.8a4.761,4.761,0,0,0-1.653-3.6L314,45.358Z" transform="translate(-305.251 -40.83)"/></g><g transform="translate(19.043 7.472)"><path class="c" d="M334.627,23.341l-.408-.358c-.123-.108-3.009-2.679-3.009-5.855,0-2.22,1.533-4.027,3.416-4.027s3.416,1.806,3.416,4.027c0,3.167-2.886,5.746-3.009,5.854Zm0-9.006c-1.2,0-2.183,1.253-2.183,2.793a7.262,7.262,0,0,0,2.182,4.526,7.309,7.309,0,0,0,2.184-4.526C336.809,15.587,335.83,14.334,334.626,14.334Z" transform="translate(-331.21 -13.101)"/></g></g></g></g></svg>